# Blender v2.92.0 OBJ File: ''
# www.blender.org
mtllib mboard.mtl
o new_model.012
v -3.629400 0.746670 -6.758813
v -0.630591 0.746670 -6.758813
v -0.630591 0.550563 -6.758813
v -3.629400 0.550563 -6.758813
v -0.630591 0.746668 -3.749725
v -0.630591 0.550561 -3.749726
v -3.629400 0.746668 -3.749725
v -3.629400 0.550561 -3.749726
v -3.761051 0.452369 -3.643216
v -0.498940 0.452369 -3.643216
v -0.498940 0.648475 -3.643216
v -3.761051 0.648475 -3.643216
v -0.498940 0.452371 -6.916508
v -0.498940 0.648477 -6.916508
v -3.761051 0.452371 -6.916508
v -3.761051 0.648477 -6.916508
v -3.996015 0.361994 -3.407448
v -0.263977 0.361994 -3.407448
v -0.263977 0.479182 -3.407448
v -3.996015 0.479182 -3.407448
v -0.263977 0.361997 -7.152277
v -0.263977 0.479184 -7.152277
v -3.996015 0.361997 -7.152277
v -3.996015 0.479184 -7.152277
v -6.016180 0.351568 -9.031954
v 6.057156 0.351568 -9.031954
v 6.057156 0.000006 -9.031954
v -6.016180 0.000006 -9.031954
v 6.057156 0.351559 6.086453
v 6.057156 -0.000004 6.086453
v -6.016180 0.351559 6.086453
v -6.016180 -0.000004 6.086453
v -1.940501 0.607837 -0.554556
v -1.894390 0.607837 -0.322738
v -1.894390 0.373462 -0.322738
v -1.940501 0.373462 -0.554557
v -2.071816 0.607837 -0.751083
v -2.071816 0.373462 -0.751083
v -2.268342 0.607837 -0.882398
v -2.268342 0.373462 -0.882398
v -2.500161 0.607838 -0.928509
v -2.500161 0.373462 -0.928509
v -2.731980 0.607837 -0.882398
v -2.731980 0.373462 -0.882398
v -2.928506 0.607837 -0.751083
v -2.928506 0.373462 -0.751083
v -3.059820 0.607837 -0.554556
v -3.059820 0.373462 -0.554557
v -3.105932 0.607837 -0.322738
v -3.105932 0.373462 -0.322738
v -3.059820 0.607837 -0.090919
v -3.059820 0.373462 -0.090919
v -2.928506 0.607837 0.105607
v -2.928506 0.373461 0.105607
v -2.731980 0.607836 0.236922
v -2.731980 0.373461 0.236922
v -2.500161 0.607836 0.283033
v -2.500161 0.373461 0.283033
v -2.268342 0.607836 0.236922
v -2.268342 0.373461 0.236922
v -2.071816 0.607837 0.105607
v -2.071816 0.373461 0.105607
v -1.940501 0.607837 -0.090919
v -1.940501 0.373462 -0.090919
v 1.474609 1.053241 1.393610
v 1.474609 0.350117 1.393610
v -4.642725 0.350117 1.393610
v -4.642725 1.053241 1.393610
v 1.474609 0.350116 2.364465
v -4.642725 0.350116 2.364465
v -4.642725 1.053241 2.364466
v 1.474609 1.053241 2.364466
v 1.316679 1.053241 1.993725
v -4.484796 1.053241 1.993725
v -4.484796 1.053241 1.764351
v 1.316679 1.053241 1.764351
v 3.991155 1.054843 -8.045751
v 3.991155 1.054838 0.763871
v 3.991155 0.351713 0.763870
v 3.991155 0.351719 -8.045751
v 3.020299 1.054838 0.763871
v 3.020299 0.351713 0.763870
v 3.020299 1.054843 -8.045751
v 3.020299 0.351719 -8.045751
v 2.522878 1.051406 -8.045751
v 2.522878 1.051400 0.763871
v 2.522878 0.348275 0.763870
v 2.522878 0.348281 -8.045751
v 1.552022 1.051400 0.763871
v 1.552022 0.348275 0.763870
v 1.552022 1.051406 -8.045751
v 1.552022 0.348281 -8.045751
v 1.316679 0.495656 1.764351
v -4.484796 0.495656 1.764351
v -4.484796 0.495656 1.993724
v 1.316679 0.495656 1.993724
v 3.645683 2.429529 -7.837566
v 3.645683 2.429524 0.584037
v 3.645683 0.484056 0.584036
v 3.645683 0.484062 -7.837568
v 3.349509 2.429524 0.584037
v 3.349509 0.484056 0.584036
v 3.349509 2.429529 -7.837566
v 3.349509 0.484062 -7.837568
v 2.168320 2.433836 -7.837566
v 2.168320 2.433830 0.584037
v 2.168320 0.488363 0.584036
v 2.168320 0.488369 -7.837568
v 1.872147 2.433830 0.584037
v 1.872147 0.488363 0.584036
v 1.872147 2.433836 -7.837566
v 1.872147 0.488369 -7.837568
v 4.727520 1.289064 -2.118402
v 4.727520 1.289066 -4.850258
v 4.727520 0.351566 -4.850259
v 4.727520 0.351564 -2.118403
v 5.510008 1.289066 -4.850258
v 5.510008 0.351566 -4.850259
v 5.510008 1.289064 -2.118402
v 5.510008 0.351564 -2.118403
v -3.616013 0.351559 4.867832
v -3.616013 0.351559 5.744998
v -3.616013 1.054684 5.744998
v -3.616013 1.054684 4.867832
v 3.138891 0.351559 5.744998
v 3.138891 1.054684 5.744998
v 3.138891 0.351559 4.867832
v 3.138891 1.054684 4.867832
v -6.004677 0.364913 -8.979765
v -6.004677 0.364907 1.333375
v -6.004677 2.145499 1.333376
v -6.004677 2.145506 -8.979765
v -5.617594 0.364907 1.333375
v -5.617594 2.145499 1.333376
v -5.617594 0.364913 -8.979765
v -5.617594 2.145506 -8.979765
vt 0.604900 1.124444
vt 0.105098 1.124444
vt 0.105098 1.091760
vt 0.604900 1.091760
vt 1.126469 1.124444
vt 0.624954 1.124444
vt 0.624954 1.091760
vt 1.126469 1.091760
vt -0.105098 1.124444
vt -0.604900 1.124444
vt -0.604900 1.091760
vt -0.105098 1.091760
vt -0.624954 1.124444
vt -1.126469 1.124444
vt -1.126469 1.091760
vt -0.624954 1.091760
vt -0.604900 -0.126469
vt -0.105098 -0.126469
vt -0.105098 0.375046
vt -0.604900 0.375046
vt -0.604900 1.624954
vt -0.105098 1.624954
vt -0.105098 2.126469
vt -0.604900 2.126469
vt -0.626842 1.075394
vt -0.083157 1.075394
vt -0.083157 1.108079
vt -0.626842 1.108079
vt 0.607203 1.075394
vt 1.152751 1.075394
vt 1.152751 1.108079
vt 0.607203 1.108079
vt 0.083157 1.075394
vt 0.626842 1.075394
vt 0.626842 1.108079
vt 0.083157 1.108079
vt -1.152751 1.075394
vt -0.607203 1.075394
vt -0.607203 1.108079
vt -1.152751 1.108079
vt -0.626842 -0.152751
vt -0.083157 -0.152751
vt -0.083157 0.392797
vt -0.626842 0.392797
vt -0.626842 1.607203
vt -0.083157 1.607203
vt -0.083157 2.152751
vt -0.626842 2.152751
vt -0.666002 1.060332
vt -0.043996 1.060332
vt -0.043996 1.079863
vt -0.666002 1.079863
vt 0.567908 1.060332
vt 1.192046 1.060332
vt 1.192046 1.079863
vt 0.567908 1.079863
vt 0.043996 1.060332
vt 0.666002 1.060332
vt 0.666002 1.079863
vt 0.043996 1.079863
vt -1.192046 1.060332
vt -0.567908 1.060332
vt -0.567908 1.079863
vt -1.192046 1.079863
vt -0.666002 -0.192046
vt -0.043996 -0.192046
vt -0.043996 0.432092
vt -0.666002 0.432092
vt -0.666002 1.567908
vt -0.043996 1.567908
vt -0.043996 2.192046
vt -0.666002 2.192046
vt 1.002697 1.058594
vt -1.009526 1.058594
vt -1.009526 1.000000
vt 1.002697 1.000000
vt 1.505326 1.058594
vt -1.014409 1.058594
vt -1.014409 1.000000
vt 1.505326 1.000000
vt 1.009526 1.058594
vt -1.002697 1.058594
vt -1.002697 1.000000
vt 1.009526 1.000000
vt 1.014409 1.058594
vt -1.505326 1.058594
vt -1.505326 1.000000
vt 1.014409 1.000000
vt -1.002697 -0.505326
vt 1.009526 -0.505326
vt 1.009526 2.014409
vt -1.002697 2.014409
vt -1.002697 -0.014409
vt 1.009526 -0.014409
vt 1.009526 2.505326
vt -1.002697 2.505326
vt 0.092426 1.101306
vt 0.053790 1.101306
vt 0.053790 1.062244
vt 0.092426 1.062244
vt 0.125181 1.101306
vt 0.125181 1.062244
vt 0.378057 1.101306
vt 0.345303 1.101306
vt 0.345303 1.062244
vt 0.378057 1.062244
vt 0.416694 1.101306
vt 0.416694 1.062244
vt 0.455330 1.101306
vt 0.455330 1.062244
vt 0.488084 1.101306
vt 0.488084 1.062244
vt -0.092426 1.101306
vt -0.125181 1.101306
vt -0.125181 1.062244
vt -0.092426 1.062244
vt -0.053790 1.101306
vt -0.053790 1.062244
vt -0.015153 1.101306
vt -0.015153 1.062244
vt 0.017601 1.101306
vt 0.017601 1.062244
vt -0.455330 1.101306
vt -0.488084 1.101306
vt -0.488084 1.062244
vt -0.455330 1.062244
vt -0.416694 1.101306
vt -0.416694 1.062244
vt -0.378057 1.101306
vt -0.378057 1.062244
vt -0.345303 1.101306
vt -0.345303 1.062244
vt 0.015153 1.101306
vt -0.017601 1.101306
vt -0.017601 1.062244
vt 0.015153 1.062244
vt -0.323417 0.984847
vt -0.345303 1.017601
vt -0.378057 1.039487
vt -0.416694 1.047172
vt -0.455330 1.039487
vt -0.488084 1.017601
vt -0.509970 0.984847
vt -0.517655 0.946210
vt -0.509970 0.907574
vt -0.488084 0.874819
vt -0.455330 0.852934
vt -0.416694 0.845248
vt -0.378057 0.852934
vt -0.345303 0.874819
vt -0.323417 0.907574
vt -0.315732 0.946210
vt -0.315732 1.053790
vt -0.323417 1.092426
vt -0.345303 1.125181
vt -0.378057 1.147066
vt -0.416694 1.154752
vt -0.455330 1.147066
vt -0.488084 1.125181
vt -0.509970 1.092426
vt -0.517655 1.053790
vt -0.509970 1.015153
vt -0.488084 0.982399
vt -0.455330 0.960513
vt -0.416694 0.952828
vt -0.378057 0.960513
vt -0.345303 0.982399
vt -0.323417 1.015153
vt -0.245768 1.175540
vt -0.245768 1.058353
vt 0.773788 1.058353
vt 0.773788 1.175540
vt 0.245768 1.232268
vt 0.245768 1.394077
vt -0.773788 1.394077
vt -0.773788 1.232268
vt 0.232268 1.175540
vt 0.232268 1.058353
vt 0.394077 1.058353
vt 0.394077 1.175540
vt -0.773788 1.175540
vt -0.773788 1.058353
vt 0.245768 1.058353
vt 0.245768 1.175540
vt -0.773788 0.605923
vt 0.245768 0.605923
vt 0.219446 0.667713
vt -0.747466 0.667713
vt -0.394077 1.175540
vt -0.394077 1.058353
vt -0.232268 1.058353
vt -0.232268 1.175540
vt -0.773788 0.767732
vt -0.747466 0.705942
vt 0.245768 0.767732
vt 0.219446 0.705942
vt 1.340958 1.175806
vt -0.127312 1.175806
vt -0.127312 1.058619
vt 1.340958 1.058619
vt 0.665192 1.175806
vt 0.503383 1.175806
vt 0.503383 1.058619
vt 0.665192 1.058619
vt 0.127312 1.175806
vt -1.340958 1.175806
vt -1.340958 1.058619
vt 0.127312 1.058619
vt -0.503383 1.175806
vt -0.665192 1.175806
vt -0.665192 1.058619
vt -0.503383 1.058619
vt 0.503383 2.340959
vt 0.503383 0.872688
vt 0.665192 0.872688
vt 0.665192 2.340959
vt 0.665192 -0.340959
vt 0.665192 1.127312
vt 0.503383 1.127312
vt 0.503383 -0.340959
vt 1.340958 1.175233
vt -0.127312 1.175233
vt -0.127312 1.058046
vt 1.340958 1.058046
vt 0.420480 1.175233
vt 0.258670 1.175233
vt 0.258670 1.058046
vt 0.420480 1.058046
vt 0.127312 1.175233
vt -1.340958 1.175233
vt -1.340958 1.058046
vt 0.127312 1.058046
vt -0.258670 1.175233
vt -0.420480 1.175233
vt -0.420480 1.058046
vt -0.258670 1.058046
vt 0.420480 -0.340959
vt 0.420480 1.127312
vt 0.258670 1.127312
vt 0.258670 -0.340959
vt 0.258670 2.340959
vt 0.258670 0.872688
vt 0.420480 0.872688
vt 0.420480 2.340959
vt 0.219446 0.705942
vt -0.747466 0.705942
vt -0.747466 0.667713
vt 0.219446 0.667713
vt 0.219446 1.175540
vt -0.747466 1.175540
vt -0.747466 1.082610
vt 0.219446 1.082610
vt -0.294058 1.175540
vt -0.332287 1.175540
vt -0.332287 1.082610
vt -0.294058 1.082610
vt 0.747466 1.175540
vt -0.219446 1.175540
vt -0.219446 1.082610
vt 0.747466 1.082610
vt 0.332287 1.175540
vt 0.294058 1.175540
vt 0.294058 1.082610
vt 0.332287 1.082610
vt 1.306261 1.404921
vt -0.097339 1.404921
vt -0.097339 1.080676
vt 1.306261 1.080676
vt 0.607614 1.404921
vt 0.558252 1.404921
vt 0.558252 1.080676
vt 0.607614 1.080676
vt 0.097339 1.404921
vt -1.306261 1.404921
vt -1.306261 1.080676
vt 0.097339 1.080676
vt -0.558252 1.404921
vt -0.607614 1.404921
vt -0.607614 1.080676
vt -0.558252 1.080676
vt 0.558252 2.306261
vt 0.558252 0.902661
vt 0.607614 0.902661
vt 0.607614 2.306261
vt 0.607614 -0.306261
vt 0.607614 1.097339
vt 0.558252 1.097339
vt 0.558252 -0.306261
vt 1.306261 1.405638
vt -0.097339 1.405638
vt -0.097339 1.081394
vt 1.306261 1.081394
vt 0.361387 1.405638
vt 0.312024 1.405638
vt 0.312024 1.081394
vt 0.361387 1.081394
vt 0.097339 1.405638
vt -1.306261 1.405638
vt -1.306261 1.081394
vt 0.097339 1.081394
vt -0.312024 1.405638
vt -0.361387 1.405638
vt -0.361387 1.081394
vt -0.312024 1.081394
vt 0.361387 -0.306261
vt 0.361387 1.097339
vt 0.312024 1.097339
vt 0.312024 -0.306261
vt 0.312024 2.306261
vt 0.312024 0.902661
vt 0.361387 0.902661
vt 0.361387 2.306261
vt -0.353067 1.214844
vt -0.808376 1.214844
vt -0.808376 1.058594
vt -0.353067 1.058594
vt -0.787920 1.214844
vt -0.918335 1.214844
vt -0.918335 1.058594
vt -0.787920 1.058594
vt 0.808376 1.214844
vt 0.353067 1.214844
vt 0.353067 1.058594
vt 0.808376 1.058594
vt 0.918335 1.214844
vt 0.787920 1.214844
vt 0.787920 1.058594
vt 0.918335 1.058594
vt 0.787920 0.646933
vt 0.787920 0.191624
vt 0.918335 0.191624
vt 0.918335 0.646933
vt 0.918335 1.353067
vt 0.918335 1.808376
vt 0.787920 1.808376
vt 0.787920 1.353067
vt 0.811305 1.058594
vt 0.957500 1.058594
vt 0.957500 1.175781
vt 0.811305 1.175781
vt -0.602669 1.058594
vt 0.523148 1.058594
vt 0.523148 1.175781
vt -0.602669 1.175781
vt -0.957500 1.058594
vt -0.811305 1.058594
vt -0.811305 1.175781
vt -0.957500 1.175781
vt -0.523148 1.058594
vt 0.602669 1.058594
vt 0.602669 1.175781
vt -0.523148 1.175781
vt 0.523148 1.811305
vt 0.523148 1.957500
vt -0.602669 1.957500
vt -0.602669 1.811305
vt -0.602669 0.188695
vt -0.602669 0.042500
vt 0.523148 0.042500
vt 0.523148 0.188695
vt -1.496627 1.060818
vt 0.222229 1.060818
vt 0.222229 1.357583
vt -1.496627 1.357583
vt -1.000780 1.060818
vt -0.936266 1.060818
vt -0.936266 1.357583
vt -1.000780 1.357583
vt -0.222229 1.060818
vt 1.496627 1.060818
vt 1.496627 1.357583
vt -0.222229 1.357583
vt 0.936266 1.060818
vt 1.000780 1.060818
vt 1.000780 1.357583
vt 0.936266 1.357583
vt -0.936266 -0.496628
vt -0.936266 1.222229
vt -1.000780 1.222229
vt -1.000780 -0.496628
vt -1.000780 2.496628
vt -1.000780 0.777771
vt -0.936266 0.777771
vt -0.936266 2.496628
vn -0.5774 0.5774 -0.5774
vn 0.5774 0.5774 -0.5774
vn 0.5774 -0.5774 -0.5774
vn -0.5774 -0.5774 -0.5774
vn 0.5774 0.5773 0.5774
vn 0.5774 -0.5774 0.5773
vn -0.5774 0.5773 0.5774
vn -0.5774 -0.5774 0.5773
vn -0.5774 -0.5774 0.5774
vn 0.5774 -0.5774 0.5774
vn 0.5774 0.5774 0.5774
vn -0.5774 0.5774 0.5774
vn 0.8231 0.4542 -0.3409
vn 0.8909 0.4542 0.0000
vn 0.8909 -0.4542 -0.0000
vn 0.8231 -0.4542 -0.3409
vn 0.6300 0.4542 -0.6300
vn 0.6300 -0.4542 -0.6300
vn 0.3410 0.4542 -0.8231
vn 0.3409 -0.4542 -0.8231
vn 0.0000 0.4542 -0.8909
vn 0.0000 -0.4542 -0.8909
vn -0.3409 0.4542 -0.8231
vn -0.3409 -0.4542 -0.8231
vn -0.6300 0.4542 -0.6300
vn -0.6300 -0.4542 -0.6300
vn -0.8231 0.4542 -0.3410
vn -0.8231 -0.4542 -0.3409
vn -0.8909 0.4542 -0.0000
vn -0.8909 -0.4542 -0.0000
vn -0.8231 0.4542 0.3409
vn -0.8231 -0.4542 0.3409
vn -0.6300 0.4542 0.6300
vn -0.6300 -0.4542 0.6300
vn -0.3410 0.4542 0.8231
vn -0.3409 -0.4542 0.8231
vn -0.0000 0.4542 0.8909
vn 0.0000 -0.4542 0.8909
vn 0.3409 0.4542 0.8231
vn 0.3409 -0.4542 0.8231
vn 0.6300 0.4542 0.6300
vn 0.6300 -0.4542 0.6300
vn 0.8231 0.4542 0.3410
vn 0.8231 -0.4542 0.3409
vn 0.4083 0.8165 -0.4082
vn 0.5774 -0.5773 -0.5774
vn -0.5774 -0.5773 -0.5774
vn -0.4082 0.8165 -0.4083
vn -0.4083 0.8165 0.4082
vn 0.4082 0.8165 0.4083
vn -0.4083 0.8165 -0.4083
vn 0.4083 0.8165 -0.4083
vn 0.4083 0.8165 0.4083
vn -0.4083 0.8165 0.4083
vn 0.5774 0.5774 -0.5773
vn -0.5774 0.5774 -0.5773
usemtl bdbdbd.004
s 1
f 1/1/1 2/2/2 3/3/3 4/4/4
f 2/5/2 5/6/5 6/7/6 3/8/3
f 5/9/5 7/10/7 8/11/8 6/12/6
f 7/13/7 1/14/1 4/15/4 8/16/8
f 4/17/4 3/18/3 6/19/6 8/20/8
f 7/21/7 5/22/5 2/23/2 1/24/1
f 9/25/9 10/26/10 11/27/11 12/28/12
f 10/29/10 13/30/3 14/31/2 11/32/11
f 13/33/3 15/34/4 16/35/1 14/36/2
f 15/37/4 9/38/9 12/39/12 16/40/1
f 15/41/4 13/42/3 10/43/10 9/44/9
f 12/45/12 11/46/11 14/47/2 16/48/1
usemtl 5ea13a.004
f 17/49/9 18/50/10 19/51/11 20/52/12
f 18/53/10 21/54/3 22/55/2 19/56/11
f 21/57/3 23/58/4 24/59/1 22/60/2
f 23/61/4 17/62/9 20/63/12 24/64/1
f 23/65/4 21/66/3 18/67/10 17/68/9
f 20/69/12 19/70/11 22/71/2 24/72/1
usemtl 524503.001
f 25/73/1 26/74/2 27/75/3 28/76/4
f 26/77/2 29/78/11 30/79/10 27/80/3
f 29/81/11 31/82/12 32/83/9 30/84/10
f 31/85/12 25/86/1 28/87/4 32/88/9
f 28/89/4 27/90/3 30/91/10 32/92/9
f 31/93/12 29/94/11 26/95/2 25/96/1
usemtl d4d4d4.001
f 33/97/13 34/98/14 35/99/15 36/100/16
f 37/101/17 33/97/13 36/100/16 38/102/18
f 39/103/19 37/104/17 38/105/18 40/106/20
f 41/107/21 39/103/19 40/106/20 42/108/22
f 43/109/23 41/107/21 42/108/22 44/110/24
f 45/111/25 43/109/23 44/110/24 46/112/26
f 47/113/27 45/114/25 46/115/26 48/116/28
f 49/117/29 47/113/27 48/116/28 50/118/30
f 51/119/31 49/117/29 50/118/30 52/120/32
f 53/121/33 51/119/31 52/120/32 54/122/34
f 55/123/35 53/124/33 54/125/34 56/126/36
f 57/127/37 55/123/35 56/126/36 58/128/38
f 59/129/39 57/127/37 58/128/38 60/130/40
f 61/131/41 59/129/39 60/130/40 62/132/42
f 63/133/43 61/134/41 62/135/42 64/136/44
f 34/98/14 63/133/43 64/136/44 35/99/15
f 64/137/44 62/138/42 60/139/40 58/140/38 56/141/36 54/142/34 52/143/32 50/144/30 48/145/28 46/146/26 44/147/24 42/148/22 40/149/20 38/150/18 36/151/16 35/152/15
f 34/153/14 33/154/13 37/155/17 39/156/19 41/157/21 43/158/23 45/159/25 47/160/27 49/161/29 51/162/31 53/163/33 55/164/35 57/165/37 59/166/39 61/167/41 63/168/43
usemtl ccc127.001
f 65/169/45 66/170/46 67/171/47 68/172/48
f 66/173/46 69/174/6 70/175/8 67/176/47
f 68/177/48 67/178/47 70/179/8 71/180/49
f 71/181/49 70/182/8 69/183/6 72/184/50
f 71/185/49 72/186/50 73/187/51 74/188/52
f 72/189/50 69/190/6 66/191/46 65/192/45
f 68/193/48 71/185/49 74/188/52 75/194/53
f 65/195/45 68/193/48 75/194/53 76/196/54
f 73/187/51 72/186/50 65/195/45 76/196/54
f 77/197/2 78/198/11 79/199/6 80/200/46
f 78/201/11 81/202/7 82/203/8 79/204/6
f 81/205/7 83/206/1 84/207/4 82/208/8
f 83/209/1 77/210/2 80/211/46 84/212/4
f 83/213/1 81/214/7 78/215/11 77/216/2
f 80/217/46 79/218/6 82/219/8 84/220/4
f 85/221/2 86/222/11 87/223/6 88/224/46
f 86/225/11 89/226/7 90/227/8 87/228/6
f 89/229/7 91/230/1 92/231/4 90/232/8
f 91/233/1 85/234/2 88/235/46 92/236/4
f 88/237/46 87/238/6 90/239/8 92/240/4
f 91/241/1 89/242/7 86/243/11 85/244/2
usemtl 000000.001
f 93/245/7 94/246/5 95/247/55 96/248/56
f 76/249/54 75/250/53 94/251/5 93/252/7
f 75/253/53 74/254/52 95/255/55 94/256/5
f 74/257/52 73/258/51 96/259/56 95/260/55
f 73/261/51 76/262/54 93/263/7 96/264/56
usemtl 067300.001
f 97/265/55 98/266/5 99/267/6 100/268/46
f 98/269/5 101/270/7 102/271/8 99/272/6
f 101/273/7 103/274/56 104/275/47 102/276/8
f 103/277/56 97/278/55 100/279/46 104/280/47
f 103/281/56 101/282/7 98/283/5 97/284/55
f 100/285/46 99/286/6 102/287/8 104/288/47
f 105/289/55 106/290/5 107/291/6 108/292/46
f 106/293/5 109/294/7 110/295/8 107/296/6
f 109/297/7 111/298/56 112/299/47 110/300/8
f 111/301/56 105/302/55 108/303/46 112/304/47
f 108/305/46 107/306/6 110/307/8 112/308/47
f 111/309/56 109/310/7 106/311/5 105/312/55
usemtl 525252.001
f 113/313/7 114/314/1 115/315/4 116/316/8
f 114/317/1 117/318/55 118/319/46 115/320/4
f 117/321/55 119/322/5 120/323/6 118/324/46
f 119/325/5 113/326/7 116/327/8 120/328/6
f 116/329/8 115/330/4 118/331/46 120/332/6
f 119/333/5 117/334/55 114/335/1 113/336/7
usemtl 8c92ac.001
f 121/337/47 122/338/9 123/339/12 124/340/1
f 122/341/9 125/342/10 126/343/11 123/344/12
f 125/345/10 127/346/46 128/347/2 126/348/11
f 127/349/46 121/350/47 124/351/1 128/352/2
f 127/353/46 125/354/10 122/355/9 121/356/47
f 124/357/1 123/358/12 126/359/11 128/360/2
usemtl 91a3b0.001
f 129/361/4 130/362/8 131/363/7 132/364/1
f 130/365/8 133/366/6 134/367/5 131/368/7
f 133/369/6 135/370/46 136/371/2 134/372/5
f 135/373/46 129/374/4 132/375/1 136/376/2
f 135/377/46 133/378/6 130/379/8 129/380/4
f 132/381/1 131/382/7 134/383/5 136/384/2
